<svg width="25" height="25" viewBox="0 0 25 25" fill="none" xmlns="http://www.w3.org/2000/svg">
<path d="M22.7313 7.74063C22.6355 7.60216 22.5075 7.48899 22.3584 7.41079C22.2093 7.3326 22.0434 7.29173 21.875 7.29167H7.63858L6.4365 4.40625C6.27888 4.02628 6.01199 3.70166 5.66965 3.47356C5.32731 3.24546 4.92495 3.12414 4.51358 3.125H2.08337V5.20834H4.51358L9.45525 17.0677C9.5344 17.2575 9.66793 17.4195 9.83902 17.5335C10.0101 17.6475 10.2111 17.7084 10.4167 17.7083H18.75C19.1844 17.7083 19.573 17.4385 19.7261 17.0333L22.8511 8.70001C22.9101 8.54232 22.9301 8.37266 22.9092 8.20558C22.8884 8.03849 22.8273 7.87895 22.7313 7.74063ZM18.0282 15.625H11.1115L8.50733 9.375H20.3719L18.0282 15.625Z" fill="#1A1A1A"/>
<path d="M10.9375 21.875C11.8004 21.875 12.5 21.1754 12.5 20.3125C12.5 19.4496 11.8004 18.75 10.9375 18.75C10.0746 18.75 9.375 19.4496 9.375 20.3125C9.375 21.1754 10.0746 21.875 10.9375 21.875Z" fill="#1A1A1A"/>
<path d="M18.2291 21.875C19.0921 21.875 19.7916 21.1754 19.7916 20.3125C19.7916 19.4496 19.0921 18.75 18.2291 18.75C17.3662 18.75 16.6666 19.4496 16.6666 20.3125C16.6666 21.1754 17.3662 21.875 18.2291 21.875Z" fill="#1A1A1A"/>
</svg>
