<svg width="25" height="25" viewBox="0 0 25 25" fill="none" xmlns="http://www.w3.org/2000/svg">
<path d="M20.9595 18.6426C20.4989 17.5517 19.8306 16.5608 18.9917 15.7251C18.1554 14.887 17.1646 14.2188 16.0742 13.7573C16.0645 13.7524 16.0547 13.75 16.0449 13.7451C17.5659 12.6465 18.5547 10.8569 18.5547 8.83789C18.5547 5.49316 15.8447 2.7832 12.5 2.7832C9.15527 2.7832 6.44531 5.49316 6.44531 8.83789C6.44531 10.8569 7.43408 12.6465 8.95508 13.7476C8.94531 13.7524 8.93555 13.7549 8.92578 13.7598C7.83203 14.2212 6.85059 14.8828 6.0083 15.7275C5.17019 16.5639 4.50196 17.5546 4.04053 18.645C3.58721 19.7125 3.34273 20.857 3.32031 22.0166C3.31966 22.0427 3.32423 22.0686 3.33375 22.0928C3.34328 22.1171 3.35756 22.1392 3.37576 22.1579C3.39396 22.1765 3.41572 22.1914 3.43974 22.2015C3.46376 22.2116 3.48956 22.2168 3.51563 22.2168H4.98047C5.08789 22.2168 5.17334 22.1313 5.17578 22.0264C5.22461 20.1416 5.98145 18.3765 7.31934 17.0386C8.70361 15.6543 10.542 14.8926 12.5 14.8926C14.458 14.8926 16.2964 15.6543 17.6807 17.0386C19.0186 18.3765 19.7754 20.1416 19.8242 22.0264C19.8267 22.1338 19.9121 22.2168 20.0195 22.2168H21.4844C21.5104 22.2168 21.5362 22.2116 21.5603 22.2015C21.5843 22.1914 21.606 22.1765 21.6242 22.1579C21.6424 22.1392 21.6567 22.1171 21.6662 22.0928C21.6758 22.0686 21.6803 22.0427 21.6797 22.0166C21.6553 20.8496 21.4136 19.7144 20.9595 18.6426V18.6426ZM12.5 13.0371C11.3794 13.0371 10.3247 12.6001 9.53125 11.8066C8.73779 11.0132 8.30078 9.9585 8.30078 8.83789C8.30078 7.71729 8.73779 6.6626 9.53125 5.86914C10.3247 5.07568 11.3794 4.63867 12.5 4.63867C13.6206 4.63867 14.6753 5.07568 15.4687 5.86914C16.2622 6.6626 16.6992 7.71729 16.6992 8.83789C16.6992 9.9585 16.2622 11.0132 15.4687 11.8066C14.6753 12.6001 13.6206 13.0371 12.5 13.0371Z" fill="#1A1A1A"/>
</svg>
